<svg width="190" height="75" viewBox="0 0 190 75" fill="none" xmlns="http://www.w3.org/2000/svg">
<path d="M40.288 59H35.0654L9.45026 23.0952V59H6.27945V18.6499L2.14496 12.7745H10.4761L37.0861 50.1404V12.7745H40.288V59ZM61.1469 29.126C63.2608 29.126 65.0431 29.5197 66.4938 30.3073C67.9652 31.0741 69.1569 32.1206 70.0687 33.447C71.0013 34.7733 71.6645 36.3069 72.0583 38.0478C72.4727 39.7679 72.68 41.5916 72.68 43.519V44.98H53.5308C53.5308 46.1406 53.7173 47.3944 54.0903 48.7415C54.4634 50.0886 55.0644 51.332 55.8933 52.4719C56.743 53.6117 57.831 54.565 59.1574 55.3318C60.5045 56.0779 62.1521 56.4509 64.1001 56.4509H70.5661V59H64.0069C61.1055 59 58.5978 58.6684 56.484 58.0052C54.3908 57.3421 52.6603 56.3784 51.2925 55.1142C49.9455 53.85 48.9507 52.3061 48.3082 50.4823C47.6658 48.6586 47.3446 46.5758 47.3446 44.234C47.3446 42.2859 47.6451 40.4 48.2461 38.5762C48.8678 36.7525 49.7589 35.1464 50.9195 33.7579C52.1008 32.3486 53.5411 31.2295 55.2405 30.4005C56.9606 29.5508 58.9294 29.126 61.1469 29.126ZM60.8361 31.9548C59.5512 31.9548 58.4528 32.245 57.5409 32.8253C56.629 33.4055 55.8726 34.1827 55.2716 35.1567C54.6913 36.1101 54.2561 37.2292 53.966 38.5141C53.6966 39.7782 53.5515 41.0942 53.5308 42.462H66.6803V41.1253C66.6389 39.9233 66.5249 38.7731 66.3384 37.6747C66.1726 36.5764 65.8721 35.6023 65.4368 34.7526C65.0016 33.9029 64.411 33.2294 63.6649 32.732C62.9396 32.2139 61.9966 31.9548 60.8361 31.9548ZM85.1145 31.2709C86.2958 30.5456 87.5496 30.0068 88.876 29.6544C90.2023 29.3021 91.394 29.126 92.4509 29.126C95.0829 29.126 97.3522 29.4887 99.2588 30.214C101.186 30.9186 102.772 31.903 104.015 33.1672C105.279 34.4107 106.212 35.9028 106.813 37.6437C107.414 39.3638 107.714 41.2393 107.714 43.2703C107.714 45.322 107.435 47.3012 106.875 49.2078C106.336 51.0937 105.362 52.762 103.953 54.2127C102.564 55.6634 100.668 56.824 98.2641 57.6944C95.8601 58.5648 92.8136 59 89.1247 59H85.1145V70.2533L78.8351 72.0563V29.7166H85.1145V31.2709ZM91.7981 31.7372C90.4718 31.7372 89.2698 31.8927 88.1921 32.2035C87.1352 32.5144 86.1093 32.9703 85.1145 33.5713V56.4509H89.1247C90.9899 56.4509 92.5856 56.2229 93.912 55.767C95.2383 55.3111 96.3574 54.7101 97.2693 53.964C98.1812 53.1972 98.9065 52.3475 99.4454 51.4149C100.005 50.4616 100.43 49.4979 100.72 48.5239C101.01 47.5291 101.197 46.5758 101.279 45.6639C101.383 44.7313 101.435 43.9127 101.435 43.2081C101.435 41.6952 101.217 40.2549 100.782 38.8871C100.368 37.4986 99.7459 36.2758 98.9169 35.2189C98.1086 34.162 97.1035 33.3226 95.9015 32.7009C94.7202 32.0585 93.3524 31.7372 91.7981 31.7372ZM146.914 56.5753C145.567 57.1555 144.334 57.6426 143.215 58.0363C142.096 58.4094 141.049 58.7099 140.075 58.9378C139.122 59.1658 138.22 59.3212 137.371 59.4041C136.521 59.5077 135.713 59.5596 134.946 59.5596C132.998 59.5596 131.506 59.0622 130.47 58.0674C129.454 57.0519 128.946 55.4147 128.946 53.1558V29.7166H135.257V52.1921C135.257 52.6687 135.298 53.1454 135.381 53.6221C135.485 54.078 135.651 54.4925 135.879 54.8655C136.127 55.2385 136.459 55.5494 136.873 55.7981C137.288 56.0261 137.827 56.1401 138.49 56.1401C139.547 56.1401 140.77 56.0157 142.158 55.767C143.567 55.4976 145.153 54.9588 146.914 54.1505V29.7166H153.194V59H146.914V56.5753ZM167.835 32.1414C169.162 31.5611 170.384 31.0844 171.504 30.7114C172.623 30.3176 173.669 30.0068 174.643 29.7788C175.617 29.5301 176.519 29.3643 177.348 29.2814C178.198 29.1778 179.016 29.126 179.804 29.126C181.752 29.126 183.234 29.6337 184.249 30.6492C185.285 31.6647 185.803 33.3019 185.803 35.5609V59H179.493V36.5245C179.493 36.0686 179.441 35.6023 179.337 35.1257C179.254 34.649 179.089 34.2241 178.84 33.8511C178.591 33.4781 178.249 33.1776 177.814 32.9496C177.4 32.7009 176.871 32.5766 176.229 32.5766C175.172 32.5766 173.949 32.7113 172.561 32.9807C171.172 33.2294 169.597 33.7579 167.835 34.5661V59H161.525V29.7166H167.835V32.1414Z" fill="black"/>
<path d="M109.673 11.9372L112.042 18.6518H107.304L109.673 11.9372Z" fill="black"/>
<path d="M116.636 11.9372L119.005 18.6518H114.267L116.636 11.9372Z" fill="black"/>
<path d="M123.6 11.9372L125.969 18.6518H121.231L123.6 11.9372Z" fill="black"/>
<rect x="108.429" y="18.4031" width="2.48691" height="6.98325" fill="black"/>
<rect x="115.393" y="18.4031" width="2.48691" height="6.98325" fill="black"/>
<rect x="122.356" y="18.4031" width="2.48691" height="6.98325" fill="black"/>
<path d="M109.673 25.3665C109.673 30.4099 110.956 31.335 116.388 31.335" stroke="black" stroke-width="2.48691"/>
<path d="M123.6 25.1178C123.6 30.1612 122.068 31.4942 116.636 31.4942" stroke="black" stroke-width="2.48691"/>
<path d="M116.636 25.3665V32.5785" stroke="black" stroke-width="2.48691"/>
<line x1="116.636" y1="32.3298" x2="116.636" y2="75.0052" stroke="black" stroke-width="2.48691"/>
<line x1="111" y1="37.755" x2="122.4" y2="37.755" stroke="black" stroke-width="2.49"/>
</svg>
