<svg width="69" height="69" viewBox="0 0 69 69" fill="none" xmlns="http://www.w3.org/2000/svg">
<path d="M14.4774 25.9915C14.3513 24.8553 13.3278 24.0365 12.1916 24.1626C11.0553 24.2888 10.2365 25.3122 10.3627 26.4485L14.4774 25.9915ZM58.6374 26.4482C58.7635 25.312 57.9446 24.2887 56.8083 24.1626C55.672 24.0366 54.6486 24.8555 54.5228 25.9918L58.6374 26.4482ZM6.90008 24.15C5.75686 24.15 4.83008 25.0768 4.83008 26.22C4.83008 27.3632 5.75686 28.29 6.90008 28.29V24.15ZM62.1001 28.29C63.2433 28.29 64.1701 27.3632 64.1701 26.22C64.1701 25.0768 63.2433 24.15 62.1001 24.15V28.29ZM13.3286 25.2943C12.8174 26.3168 13.2318 27.5602 14.2543 28.0715C15.2769 28.5827 16.5203 28.1683 17.0315 27.1457L13.3286 25.2943ZM22.5515 16.1057C23.0628 15.0832 22.6483 13.8398 21.6258 13.3285C20.6033 12.8173 19.3599 13.2318 18.8486 14.2543L22.5515 16.1057ZM51.9687 27.1457C52.4798 28.1683 53.7232 28.5827 54.7458 28.0715C55.7684 27.5602 56.1829 26.3168 55.6715 25.2943L51.9687 27.1457ZM50.1515 14.2543C49.6403 13.2318 48.397 12.8173 47.3744 13.3285C46.3518 13.8398 45.9373 15.0832 46.4487 16.1057L50.1515 14.2543ZM24.1501 42.78C24.1501 43.9232 25.0769 44.85 26.2201 44.85C27.3633 44.85 28.2901 43.9232 28.2901 42.78H24.1501ZM28.2901 37.26C28.2901 36.1168 27.3633 35.19 26.2201 35.19C25.0769 35.19 24.1501 36.1168 24.1501 37.26H28.2901ZM32.4301 42.78C32.4301 43.9232 33.3569 44.85 34.5001 44.85C35.6433 44.85 36.5701 43.9232 36.5701 42.78H32.4301ZM36.5701 37.26C36.5701 36.1168 35.6433 35.19 34.5001 35.19C33.3569 35.19 32.4301 36.1168 32.4301 37.26H36.5701ZM40.7101 42.78C40.7101 43.9232 41.6369 44.85 42.7801 44.85C43.9233 44.85 44.8501 43.9232 44.8501 42.78H40.7101ZM44.8501 37.26C44.8501 36.1168 43.9233 35.19 42.7801 35.19C41.6369 35.19 40.7101 36.1168 40.7101 37.26H44.8501ZM10.3627 26.4485L12.8826 49.1385L16.9973 48.6814L14.4774 25.9915L10.3627 26.4485ZM12.8826 49.1385C13.3098 52.981 16.5571 55.8886 20.4233 55.89L20.4249 51.75C18.6675 51.7495 17.1915 50.4282 16.9973 48.6814L12.8826 49.1385ZM20.4233 55.89H48.5761L48.5764 51.75H20.4249L20.4233 55.89ZM48.5761 55.89C52.4437 55.8906 55.693 52.9826 56.1203 49.1388L52.0057 48.6812C51.8114 50.4285 50.3345 51.7503 48.5764 51.75L48.5761 55.89ZM56.1203 49.1388L58.6374 26.4482L54.5228 25.9918L52.0057 48.6812L56.1203 49.1388ZM6.90008 28.29H62.1001V24.15H6.90008V28.29ZM17.0315 27.1457L22.5515 16.1057L18.8486 14.2543L13.3286 25.2943L17.0315 27.1457ZM55.6715 25.2943L50.1515 14.2543L46.4487 16.1057L51.9687 27.1457L55.6715 25.2943ZM28.2901 42.78V37.26H24.1501V42.78H28.2901ZM36.5701 42.78V37.26H32.4301V42.78H36.5701ZM44.8501 42.78V37.26H40.7101V42.78H44.8501Z" fill="white"/>
</svg>
