<svg width="45" height="45" viewBox="0 0 45 45" fill="none" xmlns="http://www.w3.org/2000/svg">
<g clip-path="url(#clip0_8_75)">
<path fill-rule="evenodd" clip-rule="evenodd" d="M20.625 23.4375C20.625 26.0263 18.9461 28.125 16.875 28.125C14.8039 28.125 13.125 26.0263 13.125 23.4375C13.125 20.8487 14.8039 18.75 16.875 18.75C18.9461 18.75 20.625 20.8487 20.625 23.4375ZM15.418 23.4375C15.418 24.4434 16.0703 25.2587 16.875 25.2587C17.6797 25.2587 18.332 24.4434 18.332 23.4375C18.332 22.4316 17.6797 21.6163 16.875 21.6163C16.0703 21.6163 15.418 22.4316 15.418 23.4375Z" fill="white"/>
<path fill-rule="evenodd" clip-rule="evenodd" d="M28.125 28.125C30.1961 28.125 31.875 26.0263 31.875 23.4375C31.875 20.8487 30.1961 18.75 28.125 18.75C26.0539 18.75 24.375 20.8487 24.375 23.4375C24.375 26.0263 26.0539 28.125 28.125 28.125ZM28.125 25.2587C27.3202 25.2587 26.6679 24.4434 26.6679 23.4375C26.6679 22.4316 27.3202 21.6163 28.125 21.6163C28.9297 21.6163 29.5821 22.4316 29.5821 23.4375C29.5821 24.4434 28.9297 25.2587 28.125 25.2587Z" fill="white"/>
<path fill-rule="evenodd" clip-rule="evenodd" d="M18.7245 6.25427C18.6391 5.74161 18.3447 5.28741 17.9116 5.00008C17.4785 4.71276 16.9456 4.61809 16.44 4.73867C12.4027 5.70159 10.1217 6.50813 6.52073 8.71356C6.2469 8.88128 6.02072 9.11651 5.86387 9.39671C3.6315 13.385 2.14714 16.8252 1.23349 20.5155C0.321671 24.1984 2.84985e-05 28.0434 0 32.8125C0 33.3097 0.197537 33.7868 0.549165 34.1383C2.53483 36.1239 4.59501 37.6879 6.97282 38.7446C9.35878 39.8051 11.9687 40.3125 15 40.3125C15.8071 40.3125 16.5236 39.7961 16.7788 39.0304L18.0439 35.2352C19.4496 35.4713 20.9567 35.625 22.5 35.625C24.0433 35.625 25.5504 35.4713 26.9561 35.2352L28.2212 39.0304C28.4764 39.7961 29.193 40.3125 30 40.3125C33.0313 40.3125 35.6411 39.8051 38.0273 38.7446C40.4049 37.6879 42.4652 36.1239 44.4508 34.1383C44.8024 33.7868 45 33.3097 45 32.8125C45 28.0434 44.6782 24.1984 43.7664 20.5155C42.8529 16.8252 41.3685 13.385 39.1361 9.39671C38.9794 9.11651 38.7531 8.88128 38.4793 8.71356C34.8782 6.50813 32.5973 5.70159 28.56 4.73867C28.0545 4.61809 27.5214 4.71276 27.0885 5.00008C26.6554 5.28741 26.361 5.74161 26.2755 6.25427L25.5667 10.5071C24.6169 10.3846 23.5935 10.3124 22.5 10.3124C21.4065 10.3124 20.3829 10.3846 19.4333 10.5071L18.7245 6.25427ZM31.3378 36.5218L30.6309 34.4008C32.2914 33.9287 33.939 33.3696 35.4996 32.6274C36.4329 32.1791 36.8259 31.0588 36.3776 30.1254C35.9291 29.1923 34.8088 28.7994 33.8754 29.2474C32.7609 29.7737 31.5855 30.1875 30.4108 30.5537C28.2566 31.2253 25.4093 31.875 22.5 31.875C19.5907 31.875 16.7433 31.2253 14.5891 30.5537C13.4153 30.1877 12.2455 29.7714 11.1301 29.25C10.2041 28.8127 9.06934 29.1954 8.62245 30.1254C8.17731 31.0519 8.58538 32.1902 9.51038 32.6323C11.0684 33.3709 12.7119 33.9296 14.3691 34.4008L13.6621 36.5218C11.6742 36.3971 10.0023 35.9874 8.49585 35.3179C6.84778 34.5853 5.32086 33.5079 3.75317 32.0244C3.7878 27.801 4.10916 24.5044 4.87359 21.4168C5.65234 18.2713 6.91099 15.2623 8.89725 11.6584C11.2581 10.246 12.9395 9.54394 15.3605 8.88062L15.7632 11.297C14.1224 11.8014 12.4522 12.4684 11.0681 13.4957C10.2549 14.1024 10.0783 15.3126 10.6875 16.1249C11.3067 16.9505 12.4761 17.1201 13.304 16.5062C13.9948 16.0117 14.7951 15.6482 15.5792 15.3345C17.1492 14.7065 19.491 14.0624 22.5 14.0624C25.509 14.0624 27.8509 14.7065 29.4208 15.3345C30.2049 15.6482 31.0052 16.0117 31.6959 16.5062C32.5239 17.1201 33.6934 16.9505 34.3125 16.1249C34.9202 15.3147 34.7363 14.0926 33.9248 13.4905C32.5266 12.4803 30.8799 11.8021 29.2367 11.297L29.6394 8.88062C32.0604 9.54394 33.7419 10.246 36.1028 11.6584C38.0889 15.2623 39.3476 18.2713 40.1265 21.4168C40.8909 24.5044 41.2121 27.801 41.2468 32.0244C39.6791 33.5079 38.1523 34.5853 36.5042 35.3179C34.9976 35.9874 33.3259 36.3971 31.3378 36.5218ZM16.875 28.125C18.9461 28.125 20.625 26.0263 20.625 23.4375C20.625 20.8487 18.9461 18.75 16.875 18.75C14.8039 18.75 13.125 20.8487 13.125 23.4375C13.125 26.0263 14.8039 28.125 16.875 28.125ZM31.875 23.4375C31.875 26.0263 30.1961 28.125 28.125 28.125C26.0539 28.125 24.375 26.0263 24.375 23.4375C24.375 20.8487 26.0539 18.75 28.125 18.75C30.1961 18.75 31.875 20.8487 31.875 23.4375ZM16.875 25.2587C16.0703 25.2587 15.418 24.4434 15.418 23.4375C15.418 22.4316 16.0703 21.6163 16.875 21.6163C17.6797 21.6163 18.332 22.4316 18.332 23.4375C18.332 24.4434 17.6797 25.2587 16.875 25.2587ZM28.125 25.2587C27.3202 25.2587 26.6679 24.4434 26.6679 23.4375C26.6679 22.4316 27.3202 21.6163 28.125 21.6163C28.9298 21.6163 29.5821 22.4316 29.5821 23.4375C29.5821 24.4434 28.9298 25.2587 28.125 25.2587Z" fill="white"/>
</g>
<defs>
<clipPath id="clip0_8_75">
<rect width="45" height="45" fill="white"/>
</clipPath>
</defs>
</svg>
