<svg width="45" height="46" viewBox="0 0 45 46" fill="none" xmlns="http://www.w3.org/2000/svg">
<path fill-rule="evenodd" clip-rule="evenodd" d="M43.3345 8.72161C43.9305 5.81579 41.0764 3.401 38.3095 4.47006L4.39222 17.5745C1.30225 18.7683 1.16457 23.0892 4.17225 24.4773L11.5585 27.8864L15.0722 40.1843C15.2547 40.8231 15.7616 41.3178 16.4047 41.4844C17.0478 41.6509 17.7311 41.4649 18.2009 40.9951L23.6134 35.5825L31.1953 41.269C33.3962 42.9196 36.5661 41.7173 37.1188 39.0224L43.3345 8.72161ZM5.74372 21.0724L39.661 7.96806L33.4453 38.269L24.5625 31.6067C23.8161 31.0469 22.7715 31.1211 22.1117 31.7809L19.7935 34.0992L20.49 30.2684L34.1383 16.6201C34.8027 15.9559 34.8728 14.9027 34.3026 14.1562C33.7324 13.4097 32.698 13.2003 31.8823 13.6663L13.0336 24.4369L5.74372 21.0724ZM15.3318 27.4428L16.4688 31.4222L16.9053 29.0213C16.9735 28.6461 17.1546 28.3006 17.4242 28.0309L21.5865 23.8688L15.3318 27.4428Z" fill="black"/>
</svg>
