<svg width="45" height="46" viewBox="0 0 45 46" fill="none" xmlns="http://www.w3.org/2000/svg">
<path fill-rule="evenodd" clip-rule="evenodd" d="M43.3344 8.72155C43.9305 5.81573 41.0763 3.40093 38.3094 4.47L4.39216 17.5744C1.30219 18.7682 1.16451 23.0891 4.17219 24.4772L11.5584 27.8863L15.0721 40.1842C15.2547 40.8231 15.7616 41.3177 16.4047 41.4844C17.0478 41.6509 17.7311 41.4649 18.2008 40.995L23.6133 35.5824L31.1953 41.2689C33.3962 42.9195 36.566 41.7173 37.1188 39.0223L43.3344 8.72155ZM5.74366 21.0724L39.6609 7.968L33.4453 38.2689L24.5625 31.6067C23.816 31.0468 22.7715 31.1211 22.1117 31.7809L19.7934 34.0991L20.49 30.2683L34.1383 16.6201C34.8026 15.9558 34.8727 14.9026 34.3025 14.1561C33.7323 13.4096 32.6979 13.2002 31.8823 13.6663L13.0335 24.4369L5.74366 21.0724ZM15.3318 27.4427L16.4687 31.4222L16.9052 29.0213C16.9735 28.6461 17.1545 28.3005 17.4242 28.0309L21.5865 23.8688L15.3318 27.4427Z" fill="white"/>
</svg>
