<svg width="64" height="64" viewBox="0 0 64 64" fill="none" xmlns="http://www.w3.org/2000/svg">
<g clip-path="url(#clip0_29_92)">
<g opacity="0.15">
<path d="M32.1345 55.9997C32.0897 56 32.0449 56 32.0001 56C31.9553 56 31.9105 56 31.8657 55.9997C31.9111 55.9552 31.9559 55.9104 32.0001 55.8653C32.0444 55.9104 32.0892 55.9552 32.1345 55.9997Z" fill="white"/>
<path fill-rule="evenodd" clip-rule="evenodd" d="M51.7992 54.922C51.8131 54.6889 51.8204 54.4537 51.8204 54.217C51.8204 47.8518 46.6439 42.6919 40.2585 42.6919H23.7416C17.3561 42.6919 12.1797 47.8518 12.1797 54.217C12.1797 54.4537 12.1869 54.6889 12.201 54.922C6.10625 49.4947 2.26953 41.6006 2.26953 32.8132C2.26953 16.4458 15.5803 3.17731 32 3.17731C48.4198 3.17731 61.7305 16.4458 61.7305 32.8132C61.7305 41.6006 57.8936 49.4947 51.7992 54.922ZM32 32.8132C37.4734 32.8132 41.9102 28.3906 41.9102 22.9346C41.9102 17.4788 37.4734 13.056 32 13.056C26.5266 13.056 22.0899 17.4788 22.0899 22.9346C22.0899 28.3906 26.5266 32.8132 32 32.8132Z" fill="white"/>
</g>
<path d="M51.8204 54.1601C51.8204 48.8096 47.9498 41.9102 41.9102 41.9102H22.0899C16.0503 41.9102 12.1797 48.8096 12.1797 54.1601M2.26953 32C2.26953 15.5803 15.5803 2.2695 32 2.2695C48.4199 2.2695 61.7305 15.5803 61.7305 32C61.7305 48.4198 48.4199 61.7305 32 61.7305C15.5803 61.7305 2.26953 48.4198 2.26953 32ZM41.9102 22.0898C41.9102 27.5632 37.4734 32 32 32C26.5266 32 22.0899 27.5632 22.0899 22.0898C22.0899 16.6166 26.5266 12.1797 32 12.1797C37.4734 12.1797 41.9102 16.6166 41.9102 22.0898Z" stroke="white" stroke-width="4"/>
</g>
<defs>
<clipPath id="clip0_29_92">
<rect width="64" height="64" fill="white"/>
</clipPath>
</defs>
</svg>
