<svg width="63" height="63" viewBox="0 0 63 63" fill="none" xmlns="http://www.w3.org/2000/svg">
<path opacity="0.15" d="M31.5 28.875C37.2989 28.875 42 24.174 42 18.375C42 12.576 37.2989 7.875 31.5 7.875C25.701 7.875 21 12.576 21 18.375C21 24.174 25.701 28.875 31.5 28.875Z" fill="white"/>
<path d="M42 39.375H21C15.201 39.375 10.5 44.0761 10.5 49.875V55.125H52.5V49.875C52.5 44.0761 47.7989 39.375 42 39.375Z" stroke="white" stroke-width="2" stroke-linecap="round" stroke-linejoin="round"/>
<path d="M31.5 28.875C37.2989 28.875 42 24.174 42 18.375C42 12.576 37.2989 7.875 31.5 7.875C25.701 7.875 21 12.576 21 18.375C21 24.174 25.701 28.875 31.5 28.875Z" stroke="white" stroke-width="2" stroke-linecap="round" stroke-linejoin="round"/>
</svg>
