<svg width="69" height="69" viewBox="0 0 69 69" fill="none" xmlns="http://www.w3.org/2000/svg">
<path fill-rule="evenodd" clip-rule="evenodd" d="M42.7802 23.46C42.7802 28.0329 39.0733 31.74 34.5002 31.74C29.9272 31.74 26.2202 28.0329 26.2202 23.46C26.2202 18.8871 29.9272 15.18 34.5002 15.18C36.6961 15.18 38.8022 16.0523 40.355 17.6051C41.9078 19.158 42.7802 21.264 42.7802 23.46Z" stroke="white" stroke-width="4" stroke-linecap="round" stroke-linejoin="round"/>
<path fill-rule="evenodd" clip-rule="evenodd" d="M44.1599 40.02H24.8399C21.0292 40.02 17.9399 43.1093 17.9399 46.92C17.9399 50.7308 21.0292 53.82 24.8399 53.82H44.1599C47.9707 53.82 51.0599 50.7308 51.0599 46.92C51.0599 43.1093 47.9707 40.02 44.1599 40.02Z" stroke="white" stroke-width="4" stroke-linecap="round" stroke-linejoin="round"/>
</svg>
