<svg width="45" height="45" viewBox="0 0 45 45" fill="none" xmlns="http://www.w3.org/2000/svg">
<path d="M10.6654 13.4434C10.8991 11.655 13.3015 9.22452 15.2081 9.49421L15.205 9.49126C17.0605 9.83237 18.5293 12.9219 19.3575 14.3111C19.9443 15.3191 19.5633 16.3403 19.0159 16.7712C18.2775 17.347 17.1228 18.1414 17.3651 18.9391C17.7958 20.3571 22.9094 25.3042 25.4245 26.7105C26.3765 27.2428 27.0668 25.8389 27.6563 25.1195C28.0846 24.5663 29.1411 24.2356 30.1806 24.7818C31.7331 25.6564 33.1956 26.6729 34.548 27.8173C35.2234 28.3634 35.382 29.1706 34.914 30.0237C34.0897 31.5262 31.7055 33.5076 29.9748 33.1049C26.9521 32.4018 14.7276 27.8173 10.801 14.5354C10.5802 13.9071 10.6358 13.6696 10.6654 13.4434Z" fill="black"/>
<path fill-rule="evenodd" clip-rule="evenodd" d="M22.5 43.4849C19.9972 43.4849 18.6124 43.2254 16.3636 42.4966L12.0568 44.5776C9.33672 45.8918 6.13636 43.9804 6.13636 41.0416L6.13636 36.5668C1.73158 32.5979 1.63134e-07 28.0215 1.26579e-07 21.7425C5.66716e-08 9.73443 10.0736 -4.66059e-08 22.5 -1.04097e-07C34.9263 -1.61588e-07 45 9.73443 45 21.7425C45 33.7504 34.9263 43.4849 22.5 43.4849ZM10.2273 34.8478L8.92626 33.6755C5.50405 30.592 4.09091 27.1447 4.09091 21.7425C4.09091 11.9177 12.3329 3.95317 22.5 3.95317C32.6671 3.95317 40.9091 11.9177 40.9091 21.7425C40.9091 31.5673 32.6671 39.5317 22.5 39.5317C20.4838 39.5317 19.5382 39.3558 17.6644 38.7486L16.0537 38.2266L10.2273 41.0416L10.2273 34.8478Z" fill="black"/>
</svg>
